<svg xmlns="http://www.w3.org/2000/svg" width="22" height="12" viewBox="0 0 22 12">
    <g fill="none" fill-rule="nonzero">
        <path fill="#00008B" d="M0 .06h21.63v11.33H0z"/>
        <path fill="#FFF" d="M5.407 6.858l.313 1.019.956-.38-.566.892.88.547-1.019.092.14 1.06-.704-.775-.703.776.14-1.06-1.018-.093.879-.547-.566-.891.956.379zM16.223 8.692l.148.486.455-.18-.269.424.419.26-.485.044.067.505-.335-.37-.336.37.067-.505-.485-.044.419-.26-.27-.425.456.18zM13.519 4.208l.149.485.455-.18-.27.424.419.26-.485.044.067.505-.335-.37-.335.37.066-.505-.484-.044.418-.26-.27-.425.456.18zM16.223 1.139l.148.485.455-.18-.269.424.419.26-.485.045.067.504-.335-.369-.336.37.067-.505-.485-.045.419-.26-.27-.424.456.18zM18.626 3.452l.149.485.455-.18-.27.425.419.26-.485.044.067.505-.335-.37-.335.37.066-.505-.484-.044.418-.26-.27-.425.456.18zM17.304 5.725l.118.302.31.024-.238.21.075.318-.265-.172-.265.172.075-.317-.239-.21.311-.025zM4.506.06H6.31v1.888h4.506v1.889H6.309v1.888H4.506V3.837H0V1.948h4.506z"/>
        <path fill="#FFF" d="M0 .06h1.21l9.605 5.032v.633h-1.21L0 .693z"/>
        <path fill="#FFF" d="M10.815.06h-1.21L0 5.092v.633h1.21L10.814.693z"/>
        <path fill="#F00" d="M4.867.06h1.081v2.266h4.867v1.133H5.948v2.266H4.867V3.459H0V2.326h4.867z"/>
        <path fill="#F00" d="M0 .06l3.605 1.888h-.806L0 .482V.06zm10.815 0h-.806L6.404 1.948h.806L10.815.06zM10.815 5.725L7.21 3.837h.806l2.799 1.466v.422zM0 5.725h.806l3.605-1.888h-.806L0 5.725z"/>
    </g>
</svg>
