<svg xmlns="http://www.w3.org/2000/svg" width="22" height="12" viewBox="0 0 22 12">
    <g fill="none" fill-rule="nonzero">
        <path fill="#00247D" d="M.676.747v10.3h20.278V.747z"/>
        <path fill="#FFF" d="M.678.75L.677 1.914l7.868 3.994-7.866 3.99-.003 1.144 2.266.003 7.868-3.988 7.883 3.988 2.26.002V9.909l-7.877-4 7.877-3.995.001-1.167h-2.253l-7.89 4.012L2.904.75z"/>
        <path fill="#CF142B" d="M10.806 5.91l1.511-.006 8.637 4.397-.014.74-10.134-5.132zM19.423.746l1.465.002-10.083 5.163v-.774L19.423.747zM4.98 3.69L.676 1.497v-.75l10.131 5.16-1.493.003L4.98 3.69zm5.826 2.218v.75l-8.618 4.388H.68l10.125-5.138z"/>
        <g>
            <path fill="#FFF" d="M9.141.163v3.605H.27v3.605h8.872v3.605h3.549V7.373h8.871V3.768H12.69V.163z"/>
            <path fill="#CF142B" d="M9.85.163v4.326H.27v2.163h9.58v4.326h2.13V6.652h9.581V4.489H11.98V.163z"/>
        </g>
    </g>
</svg>
