<svg xmlns="http://www.w3.org/2000/svg" xmlns:xlink="http://www.w3.org/1999/xlink" width="22" height="12" viewBox="0 0 22 12">
    <defs>
        <path id="a" d="M0 0h10.815v5.642H0z"/>
        <path id="c" d="M0 0l5.407 2.821H0V0zm5.407 0h5.408L5.408 2.821V0zm0 2.817h5.408v2.821L5.408 2.817zm0 0v2.821H0l5.407-2.821z"/>
        <path id="e" d="M0 0h10.815v5.642H0z"/>
        <path id="g" d="M0 0h10.815v5.642H0z"/>
    </defs>
    <g fill="none" fill-rule="evenodd">
        <path fill="#00247D" fill-rule="nonzero" d="M0 .06h21.63v11.285H0z"/>
        <g transform="translate(0 .06)">
            <mask id="b" fill="#fff">
                <use xlink:href="#a"/>
            </mask>
            <path fill="#000" fill-rule="nonzero" stroke="#FFF" stroke-width="1.077" d="M0 0l10.815 5.642M0 5.642L10.815 0" mask="url(#b)"/>
        </g>
        <g transform="translate(0 .06)">
            <mask id="d" fill="#fff">
                <use xlink:href="#c"/>
            </mask>
            <path fill="#000" fill-rule="nonzero" stroke="#CC142B" stroke-width=".718" d="M0 0l10.815 5.642M0 5.642L10.815 0" mask="url(#d)"/>
        </g>
        <g transform="translate(0 .06)">
            <mask id="f" fill="#fff">
                <use xlink:href="#e"/>
            </mask>
            <path fill="#000" fill-rule="nonzero" stroke="#FFF" stroke-width="1.794" d="M5.407 0v5.642M0 2.817h10.815" mask="url(#f)"/>
        </g>
        <g transform="translate(0 .06)">
            <mask id="h" fill="#fff">
                <use xlink:href="#g"/>
            </mask>
            <path fill="#000" fill-rule="nonzero" stroke="#CC142B" stroke-width="1.077" d="M5.407 0v5.642M0 2.817h10.815" mask="url(#h)"/>
        </g>
        <g fill-rule="nonzero">
            <g fill="#FFF">
                <path d="M16.222 2v.408L17.041 2z"/>
                <path d="M16.42 2.52l-.24-.33.902-.152z"/>
                <path d="M16.223 2v.408L15.404 2z"/>
                <path d="M16.089 2.469l.24-.33-.902-.151z"/>
                <path d="M16.522 2.249l-.388.126.64.652z"/>
                <path d="M16.088 2.518l.24-.33.422.811z"/>
                <g>
                    <path d="M15.995 2.225l.388.126-.135-.904z"/>
                    <path d="M16.499 2.182l-.388.126.135-.905z"/>
                </g>
                <g>
                    <path d="M16.015 2.237l.387.126-.64.652z"/>
                    <path d="M16.393 2.533l-.24-.33-.422.811z"/>
                </g>
            </g>
            <g fill="#CC142B">
                <path d="M16.222 2.126v.268l.541-.268z"/>
                <path d="M16.353 2.403l-.158-.217.595-.101z"/>
                <path d="M16.222 2.126v.268l-.54-.268z"/>
                <path d="M16.115 2.453l.158-.216-.595-.101z"/>
                <path d="M16.406 2.267l-.255.082.422.432z"/>
                <path d="M16.124 2.465l.157-.217.28.535z"/>
                <g>
                    <path d="M16.077 2.27l.255.082-.088-.597z"/>
                    <path d="M16.416 2.221l-.255.083.088-.597z"/>
                </g>
                <g>
                    <path d="M16.083 2.26l.255.082-.422.431z"/>
                    <path d="M16.36 2.471l-.157-.216-.28.534z"/>
                </g>
            </g>
            <g fill="#FFF">
                <path d="M18.49 3.974v.363l.727-.363z"/>
                <path d="M18.62 4.442l-.213-.293.802-.135z"/>
                <path d="M18.49 3.974v.363l-.729-.363z"/>
                <path d="M18.34 4.405l.213-.293-.802-.135z"/>
                <path d="M18.693 4.212l-.345.112.57.58z"/>
                <path d="M18.347 4.43l.213-.293.376.722z"/>
                <g>
                    <path d="M18.285 4.178l.345.112-.12-.804z"/>
                    <path d="M18.718 4.177l-.345.112.12-.805z"/>
                </g>
                <g>
                    <path d="M18.286 4.182l.345.112-.57.58z"/>
                    <path d="M18.63 4.426l-.213-.294-.376.722z"/>
                </g>
            </g>
            <g fill="#CC142B">
                <path d="M18.511 4.064v.224l.451-.224z"/>
                <path d="M18.566 4.357l-.132-.181.496-.084z"/>
                <path d="M18.511 4.064v.224l-.45-.224z"/>
                <path d="M18.41 4.357l.132-.181-.496-.084z"/>
                <path d="M18.64 4.187l-.213.069.352.36z"/>
                <path d="M18.389 4.376l.131-.18.234.445z"/>
                <g>
                    <path d="M18.322 4.166l.213.069-.074-.498z"/>
                    <path d="M18.634 4.214l-.212.07.073-.498z"/>
                </g>
                <g>
                    <path d="M18.334 4.203l.213.069-.352.36z"/>
                    <path d="M18.542 4.37l-.132-.18-.233.446z"/>
                </g>
            </g>
            <g>
                <g fill="#FFF">
                    <path d="M13.645 4.629v.407l.818-.407z"/>
                    <path d="M13.8 5.15l-.24-.33.902-.152z"/>
                    <path d="M13.645 4.629v.407l-.819-.407z"/>
                    <path d="M13.477 5.15l.239-.33-.902-.152z"/>
                    <path d="M13.887 4.838l-.388.126.64.653z"/>
                    <path d="M13.48 5.122l.239-.33.422.811z"/>
                    <g>
                        <path d="M13.374 4.855l.388.126-.135-.904z"/>
                        <path d="M13.899 4.828l-.388.126.135-.904z"/>
                    </g>
                    <g>
                        <path d="M13.394 4.867l.388.125-.64.653z"/>
                        <path d="M13.806 5.14l-.24-.33-.422.81z"/>
                    </g>
                </g>
                <g fill="#CC142B">
                    <path d="M13.675 4.716v.268l.54-.268z"/>
                    <path d="M13.733 5.03l-.157-.217.595-.1z"/>
                    <path d="M13.675 4.716v.268l-.541-.268z"/>
                    <path d="M13.538 5.08l.158-.216-.595-.101z"/>
                    <path d="M13.802 4.89l-.255.084.422.431z"/>
                    <path d="M13.567 5.076l.158-.217.28.535z"/>
                    <g>
                        <path d="M13.476 4.84l.255.082-.088-.597z"/>
                        <path d="M13.818 4.865l-.255.083.087-.597z"/>
                    </g>
                    <g>
                        <path d="M13.507 4.883l.255.083-.422.431z"/>
                        <path d="M13.72 5.082l-.157-.217-.28.535z"/>
                    </g>
                </g>
            </g>
            <g>
                <g fill="#FFF">
                    <path d="M16.223 8.76v.453l.908-.452z"/>
                    <path d="M16.446 9.308l-.266-.367 1-.167z"/>
                    <path d="M16.223 8.76v.453l-.909-.452z"/>
                    <path d="M16.04 9.308l.267-.367-1.001-.167z"/>
                    <path d="M16.557 9.005l-.43.14.711.724z"/>
                    <path d="M16.092 9.33l.266-.365.469.9z"/>
                    <g>
                        <path d="M15.986 8.975l.43.14-.149-1.004z"/>
                        <path d="M16.5 8.976l-.431.14.15-1.004z"/>
                    </g>
                    <g>
                        <path d="M15.967 9.03l.43.14-.71.725z"/>
                        <path d="M16.402 9.31l-.266-.367-.469.9z"/>
                    </g>
                </g>
                <g fill="#CC142B">
                    <path d="M16.223 8.886v.315l.63-.315z"/>
                    <path d="M16.331 9.229l-.185-.254.695-.117z"/>
                    <path d="M16.223 8.886v.315l-.631-.315z"/>
                    <path d="M16.102 9.243l.184-.254-.695-.117z"/>
                    <path d="M16.437 9.023l-.3.097.495.503z"/>
                    <path d="M16.125 9.279l.185-.254.326.625z"/>
                    <g>
                        <path d="M16.07 9.02l.299.096-.104-.697z"/>
                        <path d="M16.439 9.035l-.3.097.105-.697z"/>
                    </g>
                    <g>
                        <path d="M16.075 9.009l.3.097-.495.503z"/>
                        <path d="M16.366 9.219l-.185-.255-.326.625z"/>
                    </g>
                </g>
            </g>
        </g>
    </g>
</svg>
