<svg xmlns="http://www.w3.org/2000/svg" xmlns:xlink="http://www.w3.org/1999/xlink" width="32" height="32" viewBox="0 0 32 32">
    <defs>
        <path id="yackju5b0a" d="M0 0L8.42 0 8.42 8.421 0 8.421z"/>
        <path id="5rxand7k2c" d="M0 0L8.42 0 8.42 8.421 0 8.421z"/>
        <path id="q97x4t243e" d="M0 0L8.42 0 8.42 8.421 0 8.421z"/>
    </defs>
    <g fill="none" fill-rule="evenodd">
        <g>
            <g>
                <g>
                    <g transform="translate(-1233 -508) translate(1079 508) translate(154)">
                        <mask id="9adglbbt3b" fill="#fff">
                            <use xlink:href="#yackju5b0a"/>
                        </mask>
                        <path fill="#3EB4E4" d="M2.35 8.421h3.72c1.298 0 2.35-1.053 2.35-2.351V2.35C8.42 1.053 7.368 0 6.07 0H2.35C1.052 0 0 1.053 0 2.351V6.07C0 7.368 1.051 8.42 2.35 8.42" mask="url(#9adglbbt3b)"/>
                    </g>
                    <path fill="#3EB4E4" d="M25.93 8.421h3.72c1.297 0 2.35-1.053 2.35-2.351V2.35C32 1.053 30.946 0 29.65 0h-3.72c-1.3 0-2.352 1.053-2.352 2.351V6.07c0 1.298 1.053 2.351 2.351 2.351M14.14 8.421h3.72c1.297 0 2.35-1.053 2.35-2.351V2.35C20.21 1.053 19.157 0 17.86 0h-3.72c-1.299 0-2.351 1.053-2.351 2.351V6.07c0 1.298 1.052 2.351 2.35 2.351" transform="translate(-1233 -508) translate(1079 508) translate(154)"/>
                    <g transform="translate(-1233 -508) translate(1079 508) translate(154) translate(0 11.79)">
                        <mask id="yrls10xq8d" fill="#fff">
                            <use xlink:href="#5rxand7k2c"/>
                        </mask>
                        <path fill="#3EB4E4" d="M2.35 8.421h3.72c1.298 0 2.35-1.053 2.35-2.351V2.35C8.42 1.053 7.368 0 6.07 0H2.35C1.052 0 0 1.053 0 2.351V6.07C0 7.368 1.051 8.42 2.35 8.42" mask="url(#yrls10xq8d)"/>
                    </g>
                    <path fill="#3EB4E4" d="M25.93 20.21h3.72c1.297 0 2.35-1.052 2.35-2.35v-3.72c0-1.298-1.053-2.35-2.35-2.35h-3.72c-1.3 0-2.352 1.052-2.352 2.35v3.72c0 1.298 1.053 2.35 2.351 2.35M14.14 20.21h3.72c1.297 0 2.35-1.052 2.35-2.35v-3.72c0-1.298-1.053-2.35-2.35-2.35h-3.72c-1.299 0-2.351 1.052-2.351 2.35v3.72c0 1.298 1.052 2.35 2.35 2.35" transform="translate(-1233 -508) translate(1079 508) translate(154)"/>
                    <g transform="translate(-1233 -508) translate(1079 508) translate(154) translate(0 23.579)">
                        <mask id="fjdzpa9qof" fill="#fff">
                            <use xlink:href="#q97x4t243e"/>
                        </mask>
                        <path fill="#3EB4E4" d="M2.35 8.421h3.72c1.298 0 2.35-1.053 2.35-2.351V2.35C8.42 1.053 7.368 0 6.07 0H2.35C1.052 0 0 1.053 0 2.351V6.07C0 7.368 1.051 8.42 2.35 8.42" mask="url(#fjdzpa9qof)"/>
                    </g>
                    <path fill="#3EB4E4" d="M25.93 32h3.72c1.297 0 2.35-1.053 2.35-2.351V25.93c0-1.298-1.053-2.351-2.35-2.351h-3.72c-1.3 0-2.352 1.053-2.352 2.351v3.719c0 1.298 1.053 2.351 2.351 2.351M14.14 32h3.72c1.297 0 2.35-1.053 2.35-2.351V25.93c0-1.298-1.053-2.351-2.35-2.351h-3.72c-1.299 0-2.351 1.053-2.351 2.351v3.719c0 1.298 1.052 2.351 2.35 2.351" transform="translate(-1233 -508) translate(1079 508) translate(154)"/>
                </g>
            </g>
        </g>
    </g>
</svg>
